<svg t="1734920603415" class="icon" viewBox="0 0 1024 1024" version="1.1" xmlns="http://www.w3.org/2000/svg" p-id="8493" width="200" height="200"><path d="M600.80128 121.27232c-39.34208-11.03872-94.592-6.17472-141.75744-5.4528-33.98656 7.38304-59.63776 10.46016-87.23456 21.80608-104.8064 43.1104-191.03744 129.88416-234.43968 234.43968-99.49696 239.6928 73.99936 446.99648 228.992 512.49664 43.19744 18.25792 117.9392 40.4992 190.81728 27.25376 151.15264-27.45344 258.79552-96.18944 321.67424-218.07616 138.61888-268.67712-71.89504-514.61632-278.05184-572.4672z m207.17056 577.91488l-10.90048 5.45792c-9.0112-22.10304-17.81248-57.39008-54.51776-49.07008-27.49952 6.2208-52.95616 45.67552-76.32384 59.97568-45.03552 27.53024-156.50816 41.58464-218.09152 16.34816-95.88736-39.29088-234.7776-199.30624-147.20512-343.4752 23.24992-38.272 65.81248-74.96192 109.04064-92.68736 16.128-6.60992 41.0368-2.59072 54.52288-10.9056 127.0528 0.75776 246.27712 96.38912 212.61824 234.43968-9.31328 38.2464-10.07104 64.2048-32.70144 87.22944 0.80896 26.56256 5.59104 31.05792 10.89536 49.0752 23.41376 5.43744 30.65856 13.3376 49.07008 0 5.45792-1.8176 10.9056-3.64032 16.34816-5.44768 3.52768-9.41568 1.0752-5.34528 5.45792-10.91584 1.28512-40.12032-7.17824-52.82816-38.15936-59.96544v-10.90048c9.41056-3.52256 5.33504-1.08032 10.89536-5.45792 82.4576-0.256 43.07968 19.85536 70.88128 54.51776 10.91584 3.6352 21.80608 7.27552 32.72192 10.9056 6.912 5.53472 10.13248 20.70528 16.34816 27.264-1.54624 20.60288-5.12 29.17888-10.90048 43.61216z" fill="#AA314D" p-id="8494"></path></svg>