<svg t="1734748764373" class="icon" viewBox="0 0 1024 1024" version="1.1" xmlns="http://www.w3.org/2000/svg" p-id="15399" width="81" height="81"><path d="M399.63407803 95.31139159c-155.08568494 19.93588939-286.86968098 106.41104592-350.81987161 230.1689047-28.99765728 56.44186864-40.13068642 101.4918005-40.13068642 164.4063605 0 60.06657581 11.3919368 107.18776889 38.31833283 160.26383801 26.14967309 51.5226232 67.57489778 100.71507753 114.43718322 136.44433383 13.46319803 10.35630617 24.3373195 19.15916642 24.3373195 19.67698172 0 1.29453827-27.44421136 124.27567408-30.0332879 133.85525728-1.81235358 7.24941431 1.03563061 6.2137837 77.93120396-33.3990874l80.00246519-40.90740938 28.47984196 6.731599c44.01430124 10.35630617 71.19960494 13.20429037 120.65096693 13.20429038 52.81716148 0 81.55591111-3.3657995 128.67710418-15.53445926 86.99297185-22.00715061 160.52274569-64.46800592 220.84822915-127.12365826 51.5226232-53.59388445 82.85044939-111.33029136 98.90272395-182.27098864 7.76722963-34.95253333 8.28504494-102.26852347 1.29453827-137.47996445C877.83651555 250.39707652 722.49192297 119.90761875 522.35630617 95.05248393c-25.63185778-3.10689185-97.09037037-2.84798419-122.72222814 0.25890766z m271.33522172 183.82443456c15.01664395 14.23992098 27.44421136 27.70311902 27.44421136 29.77438026 0 4.40143013-10.35630617 8.80286025-20.71261235 8.80286024-5.95487605 0-10.35630617 3.62470717-24.59622715 20.71261236-9.32067555 11.3919368-28.99765728 31.58673383-43.23757828 45.04993184-25.63185778 24.3373195-25.89076543 24.85513482-19.41807408 27.18530371 24.59622717 9.32067555 90.87658667 23.56059653 129.45382717 27.44421135 16.57008987 1.81235358 17.34681283 2.07126124 17.34681283 8.80286024-0.25890765 5.43706075-3.3657995 8.54395259-14.49882864 15.79336692-8.02613728 4.91924543-19.67698173 15.27555161-26.14967308 22.52496594C682.87905185 501.27859357 681.58451358 501.53750122 646.37307259 492.47573332c-38.05942518-9.5795832-78.44901925-26.66748839-102.00961579-42.71976297l-10.61521383-7.24941431-24.85513482 12.42756741c-29.51547259 14.23992098-62.39674469 25.63185778-110.5535684 37.80051752-32.62236445 8.28504494-34.95253333 8.54395259-38.05942518 4.14252248-1.81235358-2.33016889-3.3657995-4.91924543-3.62470716-5.6959684 0-0.77672297 16.57008987-9.5795832 37.02379456-19.93588938 37.28270222-18.90025876 90.61767902-49.71026963 97.34927803-56.44186865 3.10689185-3.10689185 2.33016889-5.17815309-6.47269136-14.75773629-15.01664395-16.31118222-32.10454914-39.61287111-45.3088395-61.10220643l-11.39193679-18.90025876-15.53445926 1.55344593-15.53445926 1.55344593-9.57958322-14.23992099c-5.43706075-7.76722963-9.83849086-14.7577363-9.83849086-15.53445926 0-0.77672297 13.98101333-1.55344592 31.06891852-1.55344593 40.64850173 0 192.36838717-9.83849086 200.91233976-12.94538272 3.3657995-1.29453827 11.3919368-7.76722963 17.34681283-13.98101333 5.95487605-6.47269136 12.16865975-11.65084445 13.72210567-11.9097521 1.55344592 0 15.27555161 11.65084445 30.55110322 26.14967308zM328.17556543 309.94583702v33.65799506h-69.90506667v-67.31599012h69.90506667v33.65799506z m-7.76722962 255.0240395v151.46097778h-54.37060742V454.93412345h-111.33029136v-41.4252247h165.70089878v151.46097777z m212.82209184-92.94784789c11.9097521 3.88361482 25.89076543 9.0617679 31.32782618 11.9097521l10.09739852 4.91924542-1.81235359 20.19479704-1.81235358 19.93588938 38.57724051-3.3657995c20.97152-1.55344592 40.38959408-3.62470717 42.97867061-4.40143012 5.69596839-1.55344592 33.39908741 23.30168889 32.36345679 29.25656494-0.77672297 3.62470717-8.02613728 4.40143013-56.44186864 5.43706074l-55.66514569 1.29453827-1.29453826 29.25656494-1.29453828 28.99765729h15.53445926c15.79336691 0 102.26852347-9.0617679 110.29466074-11.65084445 2.84798419-1.03563061 9.32067555 4.14252247 20.71261235 16.05227456l16.31118223 17.6057205-39.87177877 1.81235358c-22.00715061 1.03563061-58.77203753 2.84798419-81.55591112 3.88361482l-41.42522469 2.07126123 1.03563061 48.41573136 1.03563064 48.67463901-13.98101334 6.21378371c-17.6057205 8.02613728-47.38010075 15.53445925-53.07606915 13.46319802-3.88361482-1.55344592-4.14252247-6.73159902-2.58907653-57.21859162l1.81235358-55.66514567h-9.83849086c-5.43706075 0-30.29219555 1.29453827-55.14733037 2.58907655l-45.30883952 2.33016889-12.16865975-13.46319803c-6.73159902-7.50832197-12.16865975-14.23992098-12.4275674-15.01664396 0-1.03563061 18.38244347-2.58907653 40.90740937-3.36579949 22.26605827-1.03563061 52.55825383-2.33016889 67.31599013-3.10689185l26.40858074-1.55344594v-56.70077628l-10.87412148 1.29453827c-6.2137837 0.77672297-24.59622717 2.07126124-40.90740939 2.84798418-16.31118222 0.77672297-31.84564148 2.07126124-34.17581036 2.84798421-3.10689185 1.03563061-7.24941431-3.10689185-14.75773631-14.23992099-5.95487605-8.54395259-10.61521383-16.05227457-10.61521381-16.82899753 0-1.03563061 12.68647506-1.55344592 27.96202667-1.55344592 15.53445925 0 40.64850173-0.77672297 55.66514567-1.81235358l27.70311901-1.55344592v-33.39908742c0-27.1853037 0.77672297-33.14017975 3.62470716-33.14017975 2.07126124 0 13.46319803 3.10689185 25.37295012 6.73159901z" fill="#1296DB" p-id="15400"></path><path d="M537.89076543 314.08835949c-23.56059653 1.55344592-52.04043852 3.3657995-63.4323753 3.36579952l-20.71261235 0.51781529 19.67698172 18.90025877c10.61521383 10.35630617 28.22093431 24.85513482 38.5772405 32.36345678l19.15916642 13.46319804 13.98101333-13.72210568c14.7577363-14.49882864 47.12119309-53.59388445 47.12119308-56.95968395 0-1.03563061-2.58907653-1.81235358-5.69596838-1.55344592-3.3657995 0-25.11404247 1.81235358-48.67463902 3.62470715z m431.3401521 244.66773333c-20.71261235 114.4371832-93.72457086 219.55369086-201.68906271 290.49438815-19.93588939 13.20429037-71.45851259 40.13068642-91.91221729 48.41573137-12.16865975 4.66033778-7.24941431 6.73159902 25.37295012 10.35630616 31.58673383 3.62470717 62.91456 1.81235358 100.19726222-5.69596838l26.40858074-5.1781531 48.1568237 24.85513482c31.84564148 16.82899753 47.89791605 23.81950419 47.89791606 21.23042765 0-2.07126124-4.14252247-21.48933531-9.0617679-43.49648592l-9.0617679-39.61287111 8.28504493-6.47269136c34.69362569-27.1853037 55.40623803-50.22808494 72.23523556-79.74355753 37.02379457-64.46800592 39.87177876-140.84576395 7.50832197-206.09049284-5.69596839-11.65084445-12.42756741-23.81950419-15.01664394-27.18530371l-4.91924544-6.2137837-4.40143012 24.3373195z" fill="#1296DB" p-id="15401"></path></svg>