<svg t="1734748883179" class="icon" viewBox="0 0 1024 1024" version="1.1" xmlns="http://www.w3.org/2000/svg" p-id="18448" width="81" height="81"><path d="M509.857775 511.995477m-509.853256 0a509.853255 509.853255 0 1 0 1019.706511 0 509.853255 509.853255 0 1 0-1019.706511 0Z" fill="#29A8FF" p-id="18449"></path><path d="M0.00902 511.995477c0 216.184369 134.635931 400.829474 324.564583 474.988148-59.851693-28.978498-80.11729-183.425479-80.11729-228.214114 0-46.561818-242.606603-234.136727-242.606603-234.136726l6.984723-100.112859 119.248839-70.850831L263.07924 414.204858l158.317382-65.189245-41.908337-116.404544V172.070804L331.540324 124.113842 449.871068 5.765097C196.580359 35.486172 0.00902 250.711942 0.00902 511.995477zM877.689835 418.86284l-125.711508-32.601373-62.858004 62.858004h-188.583013l9.306963 86.138913 90.801396 90.783394s141.994192 20.981171 141.994192 81.494432c0 60.477258 22.218799 176.28324 115.742976 176.37775 99.226267-93.015624 161.314692-225.1853 161.314692-371.927484 0-42.646413-5.301549-84.041696-15.184571-123.650294l-29.055007 2.583267-97.768116 27.943391z" fill="#00CCC6" p-id="18450"></path></svg>