<svg t="1734748285923" class="icon" viewBox="0 0 1138 1024" version="1.1" xmlns="http://www.w3.org/2000/svg" p-id="5337" width="81" height="81"><path d="M628.294985 959.811209c-22.8059-4.379941-67.058407-12.837758-98.171091-18.728023-31.112684-6.041298-64.037758-12.384661-72.948673-14.19705l-16.311504-3.322714-0.302065-242.256047-0.302065-242.40708-4.530973-1.20826c-2.416519-0.60413-12.384661-1.510324-21.899705-1.963421-25.373451-1.057227-42.742183-2.265487-58.147493-3.775812-7.40059-0.906195-29.149263-2.869617-48.330384-4.530973-54.824779-4.833038-112.972271-12.233628-138.043657-17.368732-45.460767-9.364012-70.079056-18.728024-84.880236-32.018879l-5.890266-5.286135V128.377581h3.775811c2.114454 0 3.775811 0.60413 3.775812 1.359292 0 2.416519 15.40531 11.478466 28.696165 17.066667 52.710324 22.050737 133.965782 34.435398 292.247787 44.856637 103.155162 6.79646 98.473156 6.645428 200.117994 9.212979 39.419469 0.906195 72.646608 1.963422 73.703835 2.265487 1.359292 0.60413 1.812389 17.066667 1.81239 76.271386 0 66.152212-0.302065 75.516224-2.265487 75.516225s-2.265487 35.039528-2.265487 306.59587v306.59587l-4.077876-0.151032c-2.416519 0-22.956932-3.775811-45.762832-8.155753zM906.19469 368.368142c-4.530973-0.453097-12.686726-2.114454-18.123894-3.473747-5.437168-1.510324-13.139823-2.567552-17.368731-2.567551-5.890265 0-9.817109-1.20826-17.368732-5.437168-35.039528-19.030088-58.751622-47.424189-71.438348-85.182301-5.890265-17.821829-7.702655-32.169912-6.645427-55.882006 1.812389-41.382891 15.103245-73.703835 41.080825-99.983481 5.437168-5.588201 14.19705-13.139823 19.483186-16.915634 16.764602-11.931563 47.575221-24.920354 59.355753-24.920354 1.812389 0 3.926844 1.20826 4.833038 2.718584 1.359292 2.416519 1.510324 2.416519 2.416519 0 1.057227-2.567552 6.79646-3.926844 6.79646-1.510325 0 0.60413 7.853687 0.755162 17.368732 0.302065s17.368732-0.302065 17.368731 0.151033c0 0.60413 1.661357 1.359292 3.775812 1.661357 2.114454 0.453097 3.775811 0.151032 3.775811-0.906195 0-0.906195 0.60413-0.755162 1.359292 0.453097s2.718584 1.812389 4.530973 1.20826c1.812389-0.453097 3.171681-0.302065 3.171682 0.302065s3.926844 2.265487 8.759882 3.775811c4.682006 1.510324 11.176401 4.077876 14.348082 5.739233 3.322714 1.661357 6.79646 2.567552 8.00472 2.114454s2.114454-0.302065 2.114454 0.453098c0 0.60413 5.437168 4.682006 12.233629 9.061946 29.904425 19.483186 50.746903 47.877286 61.168141 83.21888 3.926844 13.290855 4.228909 16.311504 4.228909 40.778761 0 24.618289-0.302065 27.336873-4.077876 39.721534-7.249558 23.410029-18.274926 42.59115-34.133334 59.053687-22.956932 23.863127-49.387611 38.664307-79.443067 44.554572-9.364012 1.963422-36.39882 2.718584-47.575222 1.510325z" fill="#1B99ED" p-id="5338"></path><path d="M812.554572 360.816519c-12.082596-0.60413-46.971091-2.265487-77.479646-3.473746-30.659587-1.20826-56.033038-2.416519-56.335103-2.718584s-0.755162-33.529204-0.906195-73.854867l-0.453097-73.099705-49.085546-1.20826c-37.305015-0.906195-50.444838-1.661357-54.824779-3.322714-3.020649-1.20826-9.212979-2.265487-13.743952-2.265487-11.176401 0-12.535693-2.718584-9.968142-19.936283 2.114454-13.894985 1.661357-105.873746-0.60413-107.9882-1.812389-1.812389-93.035988-1.20826-120.976991 0.755162-13.290855 0.906195-42.440118 2.718584-64.943953 4.077876-22.352802 1.20826-47.273156 3.020649-55.126843 3.775811-52.257227 5.286136-54.975811 5.588201-89.864307 10.572272-37.305015 5.437168-58.60059 9.212979-73.40177 12.98879-24.769322 6.19233-47.877286 13.894985-51.2 17.217699-1.661357 1.661357-4.379941 3.020649-6.041298 3.020649-2.265487 0-3.020649 1.057227-3.020649 3.775811s-0.755162 3.775811-2.869616 3.775812c-4.228909 0-4.530973-4.833038-0.60413-8.00472 1.963422-1.510324 3.473746-3.775811 3.473746-4.833039 0-3.020649 8.457817-7.702655 23.561062-12.686725 18.274926-6.19233 45.611799-12.686726 49.085546-11.780531 1.661357 0.453097 2.869617 0.151032 2.869616-0.755162s1.661357-1.20826 3.775811-0.906195c2.114454 0.453097 3.775811 0.151032 3.775812-0.755162 0-0.755162 2.265487-1.057227 5.135103-0.60413 3.020649 0.453097 5.437168 0.151032 5.739233-0.755162 0.302065-0.755162 4.379941-1.510324 9.212979-1.661357 4.682006-0.151032 8.60885-0.906195 8.60885-1.661357s2.416519-0.906195 5.286136-0.453098c3.322714 0.60413 5.286136 0.302065 5.286135-0.755162s1.963422-1.20826 5.135104-0.755162c3.020649 0.453097 5.437168 0.151032 5.739233-0.755162 0.302065-0.755162 5.437168-1.661357 11.478466-1.81239 5.890265 0 10.874336-0.755162 10.874336-1.510324 0-0.60413 1.963422-0.906195 4.530973-0.60413 2.416519 0.453097 4.530973 0 4.530974-0.755162s3.624779-1.20826 8.306784-0.755162c4.530973 0.453097 8.457817 0.151032 8.60885-0.60413 0.755162-1.963422 21.59764-3.775811 25.524484-2.416519 2.114454 0.755162 3.775811 0.755162 4.379941-0.302065 0.453097-0.906195 6.343363-1.963422 12.98879-2.41652 6.494395-0.453097 12.686726-1.057227 13.743953-1.359292s4.077876 0.151032 6.645428 1.057228c3.171681 1.057227 4.984071 1.057227 5.739233 0 1.057227-1.661357 12.233628-2.869617 37.153982-4.077877 9.212979-0.453097 23.410029-1.359292 31.716814-2.114454s16.160472-1.359292 17.368732-1.359292 18.879056-0.906195 39.268437-1.963422c48.632448-2.567552 265.515044-2.718584 317.923303-0.151032 51.502065 2.567552 60.412979 3.171681 109.045428 7.249557 5.437168 0.453097 10.119174 1.661357 11.176401 3.020649 2.265487 2.718584 2.416519 2.718584-9.817109 5.588201-12.988791 3.171681-36.096755 14.046018-48.632448 22.956932-18.728024 13.441888-35.945723 33.680236-46.366962 54.371682-11.176401 22.352802-17.217699 62.678466-13.139823 86.843657 6.494395 38.362242 27.336873 72.948673 57.241298 94.99941 11.931563 8.759882 30.20649 19.181121 36.851917 21.144543 6.19233 1.661357-32.018879 1.661357-62.376401 0zM903.174041 75.516224c0-0.755162 1.359292-1.510324 3.020649-1.510324s3.020649 0.755162 3.020649 1.510324c0 0.906195-1.359292 1.510324-3.020649 1.510325s-3.020649-0.60413-3.020649-1.510325z" fill="#E7F4FC" p-id="5339"></path><path d="M676.474336 207.669617c-0.453097-0.302065-13.743953-0.755162-29.753392-0.755163-25.071386-0.151032-28.696165-0.453097-26.883776-2.416519 1.812389-1.661357 7.853687-2.114454 28.696165-2.114454 24.920354 0 26.581711 0.151032 28.092036 3.020649s1.359292 3.926844-0.151033 2.265487zM536.920354 203.893805c-5.739233-0.60413-18.425959-1.20826-28.092035-1.359292-9.666077 0-26.279646-0.755162-37.00295-1.661357-10.723304-0.755162-36.39882-2.567552-57.241298-3.775811-120.674926-7.551622-200.722124-16.915634-256.453098-30.357522-44.705605-10.723304-81.859587-28.696165-78.838938-38.211209 0.453097-1.661357 2.869617-4.682006 5.437169-6.796461 2.416519-2.114454 4.379941-4.379941 4.379941-4.98407-0.302065-1.963422 48.632448-16.462537 67.964601-20.087316 14.046018-2.718584 65.246018-10.874336 72.495576-11.478466 3.775811-0.302065 11.478466-1.359292 17.217699-2.265487 5.588201-0.906195 12.837758-1.812389 15.858407-2.114454 8.306785-0.453097 26.581711-2.265487 41.684955-3.775811 7.551622-0.755162 26.128614-2.114454 41.533924-3.020649s32.320944-1.963422 37.758112-2.265487c50.142773-3.473746 74.307965-4.379941 118.107375-4.379941 27.941003-0.151032 51.351032 0.453097 52.106194 1.057227 1.661357 1.812389 2.567552 106.024779 0.906195 115.237758-1.963422 10.421239-0.302065 12.686726 9.968141 12.686726 9.061947 0 18.274926 3.322714 18.274927 6.645428 0 2.114454-2.567552 2.416519-17.670797 2.114454-9.817109 0-22.503835-0.60413-28.3941-1.20826z" fill="#D2EBFA" p-id="5340"></path></svg>