<svg t="1735176835489" class="icon" viewBox="0 0 3816 1024" version="1.1" xmlns="http://www.w3.org/2000/svg" p-id="18357" data-spm-anchor-id="a313x.search_index.0.i7.58ed3a81TX5qUQ" width="200" height="200"><path d="M3812.072727 153.6c-2.327273 13.963636-4.654545 30.254545-6.981818 48.872727-2.327273 18.618182-4.654545 44.218182-9.309091 72.145455-4.654545 27.927273-6.981818 65.163636-13.963636 107.054545-4.654545 44.218182-11.636364 95.418182-18.618182 155.927273-6.981818 60.509091-16.290909 132.654545-25.6 214.109091h-44.218182L3607.272727 116.363636c-2.327273-25.6 6.981818-46.545455 27.927273-65.163636 20.945455-16.290909 46.545455-25.6 76.8-25.6 27.927273 0 53.527273 9.309091 74.472727 25.6 20.945455 16.290909 30.254545 39.563636 30.254546 65.163636-2.327273 11.636364-4.654545 23.272727-4.654546 37.236364zM3272.145455 991.418182c-16.290909 0-41.890909 0-74.472728 2.327273-32.581818 0-65.163636 2.327273-95.418182 4.654545v-39.563636l46.545455-16.290909c13.963636-4.654545 23.272727-11.636364 27.927273-20.945455 4.654545-9.309091 6.981818-23.272727 6.981818-39.563636V614.4c0-32.581818-6.981818-58.181818-18.618182-79.127273-11.636364-18.618182-37.236364-27.927273-74.472727-27.927272-18.618182 0-34.909091 4.654545-51.2 11.636363-16.290909 6.981818-30.254545 16.290909-41.890909 27.927273s-23.272727 20.945455-30.254546 34.909091c-9.309091 11.636364-13.963636 23.272727-18.618182 32.581818v267.636364c0 11.636364 2.327273 20.945455 6.981819 30.254545 4.654545 9.309091 11.636364 16.290909 23.272727 20.945455l65.163636 25.6v39.563636c-16.290909-2.327273-41.890909-4.654545-74.472727-4.654545-34.909091 0-67.490909-2.327273-102.4-2.327273-34.909091 0-67.490909 0-97.745455 2.327273-30.254545 0-51.2 2.327273-67.490909 4.654545v-39.563636l46.545455-16.290909c11.636364-4.654545 20.945455-13.963636 25.6-23.272728 4.654545-11.636364 6.981818-23.272727 6.981818-34.909091V174.545455c0-27.927273-9.309091-48.872727-27.927273-62.836364-18.618182-11.636364-39.563636-20.945455-65.163636-25.6V53.527273c9.309091 0 25.6-2.327273 44.218182-4.654546 18.618182-2.327273 39.563636-6.981818 62.836363-11.636363 23.272727-4.654545 44.218182-9.309091 67.49091-16.290909 20.945455-6.981818 39.563636-13.963636 55.854545-20.945455h34.909091v518.981818c25.6-37.236364 53.527273-65.163636 81.454545-86.109091 27.927273-20.945455 62.836364-32.581818 100.072728-37.236363 6.981818 0 16.290909-2.327273 23.272727-2.327273h25.6c55.854545 0 100.072727 16.290909 130.327273 51.2 30.254545 34.909091 46.545455 86.109091 46.545454 151.272727v293.236364c0 9.309091 2.327273 18.618182 6.981818 30.254545 4.654545 9.309091 13.963636 16.290909 32.581819 23.272728l41.890909 13.963636v39.563636c-32.581818-2.327273-62.836364-4.654545-93.090909-4.654545h-76.8zM2539.054545 891.345455c-2.327273 2.327273-6.981818 6.981818-11.636363 9.30909-4.654545 2.327273-9.309091 4.654545-11.636364 6.981819-4.654545 2.327273-11.636364 4.654545-18.618182 4.654545-34.909091 2.327273-51.2-16.290909-51.2-58.181818V390.981818l-13.963636-4.654545-100.072727 55.854545c-11.636364-6.981818-25.6-13.963636-41.890909-18.618182-13.963636-4.654545-32.581818-9.309091-53.527273-13.963636-20.945455-4.654545-46.545455-6.981818-74.472727-6.981818-39.563636 0-79.127273 6.981818-114.036364 20.945454-34.909091 13.963636-67.490909 34.909091-95.418182 62.836364-27.927273 27.927273-48.872727 62.836364-65.163636 104.727273-16.290909 41.890909-23.272727 88.436364-23.272727 141.963636 0 39.563636 4.654545 74.472727 13.963636 109.381818 9.309091 34.909091 23.272727 62.836364 41.890909 88.436364 18.618182 25.6 41.890909 44.218182 72.145455 58.181818 30.254545 13.963636 65.163636 20.945455 104.727272 20.945455 27.927273 0 51.2-4.654545 72.145455-13.963637 20.945455-9.309091 37.236364-23.272727 51.2-39.563636 13.963636-16.290909 25.6-34.909091 34.909091-55.854546 9.309091-20.945455 16.290909-41.890909 20.945454-62.836363v34.909091c0 37.236364 9.309091 69.818182 27.927273 97.745454 18.618182 25.6 48.872727 39.563636 93.090909 39.563637 27.927273 0 48.872727-4.654545 67.490909-16.290909 18.618182-11.636364 32.581818-23.272727 44.218182-34.909091 13.963636-13.963636 23.272727-32.581818 32.581818-51.2l-2.327273-16.290909z m-256-207.127273c0 30.254545-2.327273 58.181818-9.30909 86.109091-4.654545 27.927273-13.963636 53.527273-23.272728 74.472727-11.636364 20.945455-23.272727 39.563636-37.236363 51.2-13.963636 13.963636-32.581818 18.618182-53.527273 18.618182-20.945455 0-37.236364-4.654545-51.2-16.290909-13.963636-11.636364-25.6-27.927273-37.236364-46.545455-9.309091-20.945455-16.290909-44.218182-20.945454-69.818182-4.654545-27.927273-6.981818-55.854545-6.981818-86.109091 0-41.890909 4.654545-79.127273 11.636363-109.381818 9.309091-30.254545 18.618182-53.527273 32.581818-69.818182 13.963636-16.290909 27.927273-30.254545 41.890909-37.236363 16.290909-6.981818 30.254545-11.636364 44.218182-11.636364 25.6 0 44.218182 6.981818 58.181818 18.618182 13.963636 13.963636 25.6 30.254545 32.581819 48.872727 6.981818 18.618182 11.636364 41.890909 13.963636 62.836364 2.327273 23.272727 2.327273 44.218182 2.327273 65.163636v20.945455zM1698.909091 816.872727c-32.581818 32.581818-65.163636 53.527273-93.090909 62.836364-30.254545 9.309091-62.836364 13.963636-97.745455 13.963636-27.927273 0-53.527273-4.654545-76.8-16.290909-23.272727-11.636364-44.218182-25.6-60.509091-46.545454-16.290909-18.618182-30.254545-41.890909-37.236363-69.818182-9.309091-25.6-13.963636-55.854545-13.963637-88.436364v-18.618182c0-2.327273 2.327273-6.981818 4.654546-18.618181h372.363636c-2.327273-32.581818-6.981818-65.163636-16.290909-95.418182-9.309091-30.254545-23.272727-55.854545-44.218182-79.127273-18.618182-23.272727-44.218182-39.563636-74.472727-53.527273-30.254545-13.963636-67.490909-18.618182-109.381818-18.618182-46.545455 0-88.436364 6.981818-128 23.272728-37.236364 13.963636-69.818182 37.236364-97.745455 62.836363-25.6 27.927273-46.545455 60.509091-60.509091 100.072728-13.963636 39.563636-20.945455 81.454545-20.945454 128s6.981818 88.436364 20.945454 128c13.963636 37.236364 32.581818 69.818182 55.854546 97.745454 25.6 27.927273 53.527273 48.872727 88.436363 62.836364 34.909091 13.963636 74.472727 20.945455 116.363637 20.945454 39.563636 0 74.472727-4.654545 104.727273-13.963636 30.254545-9.309091 55.854545-23.272727 76.8-39.563636 20.945455-16.290909 41.890909-34.909091 55.854545-55.854546 16.290909-20.945455 30.254545-44.218182 41.890909-65.163636l-6.981818-20.945455zM1445.236364 437.527273c27.927273 0 44.218182 9.309091 53.527272 30.254545 9.309091 20.945455 13.963636 44.218182 13.963637 74.472727 0 25.6-13.963636 39.563636-39.563637 39.563637h-141.963636c18.618182-95.418182 58.181818-144.290909 114.036364-144.290909zM900.654545 132.654545c-23.272727 18.618182-46.545455 46.545455-69.818181 88.436364l-195.490909 321.163636c-6.981818 11.636364-13.963636 23.272727-16.29091 39.563637-2.327273 13.963636-4.654545 39.563636-4.654545 69.818182v232.727272c0 27.927273 18.618182 46.545455 58.181818 53.527273l81.454546 16.290909v41.890909c-58.181818-2.327273-111.709091-2.327273-160.581819-4.654545H374.690909c-37.236364 0-72.145455 2.327273-104.727273 4.654545v-39.563636l90.763637-18.618182c16.290909-2.327273 30.254545-9.309091 41.890909-18.618182s16.290909-20.945455 16.290909-32.581818V651.636364c0-11.636364-2.327273-23.272727-6.981818-34.909091-4.654545-11.636364-11.636364-25.6-20.945455-39.563637L162.909091 193.163636c-18.618182-32.581818-37.236364-55.854545-53.527273-69.818181-16.290909-13.963636-30.254545-23.272727-44.218182-23.272728L0 90.763636V48.872727c18.618182 2.327273 81.454545 4.654545 186.181818 4.654546H342.109091c23.272727 0 46.545455 0 65.163636-2.327273 18.618182 0 32.581818-2.327273 44.218182-2.327273v41.890909l-48.872727 13.963637c-27.927273 4.654545-39.563636 13.963636-39.563637 27.927272 0 6.981818 2.327273 11.636364 6.981819 16.29091L581.818182 518.981818c32.581818-55.854545 65.163636-109.381818 100.072727-165.236363 32.581818-53.527273 67.490909-109.381818 100.072727-165.236364 6.981818-11.636364 11.636364-20.945455 13.963637-30.254546 2.327273-9.309091 4.654545-16.290909 4.654545-23.272727 0-16.290909-11.636364-27.927273-37.236363-32.581818l-69.818182-13.963636V48.872727c9.309091 2.327273 58.181818 4.654545 146.618182 4.654546 44.218182 0 81.454545 0 109.381818-2.327273 27.927273 0 48.872727-2.327273 58.181818-4.654545v41.890909l-51.2 11.636363c-13.963636 4.654545-32.581818 16.290909-55.854546 32.581818zM3714.327273 828.509091c27.927273 0 48.872727 9.309091 69.818182 27.927273 18.618182 18.618182 27.927273 41.890909 27.927272 69.818181s-9.309091 51.2-27.927272 69.818182c-18.618182 18.618182-41.890909 27.927273-69.818182 27.927273s-51.2-9.309091-69.818182-27.927273c-18.618182-18.618182-27.927273-41.890909-27.927273-69.818182s9.309091-51.2 27.927273-69.818181c18.618182-18.618182 41.890909-27.927273 69.818182-27.927273z" p-id="18358" data-spm-anchor-id="a313x.search_index.0.i6.58ed3a81TX5qUQ" class=""></path></svg>