<svg t="1735176751201" class="icon" viewBox="0 0 1024 1024" version="1.1" xmlns="http://www.w3.org/2000/svg" p-id="16504" width="200" height="200"><path d="M5.12 358.4v61.44H89.6l-48.64 371.2h117.76l71.68-537.6L5.12 358.4z m565.76 76.8c23.04-107.52-92.16-243.2-299.52-122.88L256 422.4s61.44-71.68 120.32-58.88c61.44 12.8 79.36 104.96-20.48 227.84C256 716.8 184.32 788.48 184.32 788.48h343.04l51.2-107.52H445.44s102.4-138.24 125.44-245.76z m445.44 107.52c-28.16-128-181.76-115.2-181.76-115.2L980.48 268.8l-151.04-2.56S706.56 376.32 645.12 455.68s-81.92 192-5.12 279.04c76.8 87.04 217.6 61.44 266.24 35.84 46.08-25.6 138.24-97.28 110.08-227.84z m-189.44 153.6c-56.32 17.92-112.64-7.68-128-56.32s17.92-102.4 74.24-117.76c56.32-17.92 112.64 7.68 128 56.32 15.36 46.08-17.92 99.84-74.24 117.76z" fill="#1E7149" p-id="16505"></path></svg>