<svg t="1735000625241" class="icon" viewBox="0 0 1024 1024" version="1.1" xmlns="http://www.w3.org/2000/svg" p-id="4298" width="200" height="200"><path d="M590.94411935 419.69108325v313.84026697a73.37549488 73.37549488 0 0 1-73.31243028 73.45432545c-40.48738095 0-73.28089823-36.26206258-73.28089821-72.145738V419.70684934c0-35.91520801 32.80928338-72.33493156 73.29666393-72.14573805 40.48738095 0.18919323 73.29666435 36.23053006 73.29666456 72.12997196z" fill="#2359F1" p-id="4299"></path><path d="M826.0808593 329.27021163s-229.01275536 137.80955357-272.01014896 156.60821667c-43.03258353 18.80077585-79.7956773 8.60388378-100.03936779-26.45922867-20.24369059-35.06309679-5.23658878-81.59414961 25.83958866-99.53598728L752.78419502 202.31666818c31.08983096-17.94972061 79.0270003-7.75956093 99.12837015 27.40390274 20.07984906 35.15769343 5.25812513 81.59991971-25.83170587 99.54964071z" fill="#57CF27" p-id="4300"></path><path d="M281.20789809 202.31338887l271.77999544 156.91225041a73.37549488 73.37549488 0 0 1 26.95709086 100.21758798c-20.24369059 35.06309679-68.04430978 45.33208719-99.12048691 27.39024928L207.91123363 329.26693235c-31.08983096-17.94972061-46.2256-64.57325759-25.82382266-99.56329437 20.39964879-34.9548465 68.03065618-45.33997022 99.12048712-27.39024911z" fill="#FF561B" p-id="4301"></path></svg>